<?xml version="1.0" encoding="UTF-8"?>
<svg width="256px" height="256px" viewBox="0 0 256 256" version="1.1" xmlns="http://www.w3.org/2000/svg" xmlns:xlink="http://www.w3.org/1999/xlink">
    <!-- Generator: Sketch 50.2 (55047) - http://www.bohemiancoding.com/sketch -->
    <title>Group 2 Copy 2</title>
    <desc>Created with Sketch.</desc>
    <defs>
        <linearGradient x1="50%" y1="0%" x2="50%" y2="100%" id="linearGradient-1">
            <stop stop-color="#80C3F3" offset="0%"></stop>
            <stop stop-color="#0C55AA" offset="100%"></stop>
        </linearGradient>
        <linearGradient x1="35.1415516%" y1="82.4062337%" x2="81.9319059%" y2="4.45457176%" id="linearGradient-2">
            <stop stop-color="#FFFFFF" stop-opacity="0" offset="0%"></stop>
            <stop stop-color="#FFFFFF" offset="100%"></stop>
        </linearGradient>
    </defs>
    <g id="Page-1" stroke="none" stroke-width="1" fill="none" fill-rule="evenodd">
        <g id="Group-4">
            <g id="Group-2-Copy-2" transform="translate(10.423952, 0.000000)">
                <path d="M135.731737,254.783234 C193.772455,248.326632 211.324551,229.681437 222.682635,190.112575 C230.408404,163.197831 235.291018,150.270659 235.291018,118.653892 C235.291018,87.2259461 212.440719,65.9592814 197.365269,48.948503 C172.343708,20.7147682 160.814371,0.153293413 110.189222,0.153293413 C75.6046869,0.153293413 50.0068372,9.02324002 27.7125749,32.0526946 C6.34643788,54.1234172 0.00479041916,94.7067402 0.00479041916,127.851497 C0.00479041916,154.776664 4.08228955,197.443878 18.7928144,217.671856 C41.0860868,248.326632 95.1547477,259.297124 135.731737,254.783234 Z" id="Oval" fill="url(#linearGradient-1)"></path>
                <g id="Group" transform="translate(34.950898, 43.841916)" fill="url(#linearGradient-2)">
                    <path d="M82.7784431,0 C99.8392588,0 114.489108,10.3225765 120.823065,25.0628052 C122.97555,30.0720144 124.167665,35.5914014 124.167665,41.3892216 C124.167665,64.2478574 105.637079,82.7784431 82.7784431,82.7784431 C59.9198072,82.7784431 41.3892216,101.309029 41.3892216,124.167665 C41.3892216,147.026301 59.9198072,165.556886 82.7784431,165.556886 C37.0611714,165.556886 0,128.495715 0,82.7784431 C0,37.0611714 37.0611714,0 82.7784431,0 Z" id="Combined-Shape"></path>
                    <path d="M124.167665,0 C147.026301,0 165.556886,18.5305857 165.556886,41.3892216 C165.556886,64.2478574 147.026301,82.7784431 124.167665,82.7784431 C101.309029,82.7784431 82.7784431,101.309029 82.7784431,124.167665 C82.7784431,147.026301 101.309029,165.556886 124.167665,165.556886 C78.4503929,165.556886 41.3892216,128.495715 41.3892216,82.7784431 C41.3892216,37.0611714 78.4503929,0 124.167665,0 Z" id="Combined-Shape" transform="translate(103.473054, 82.778443) rotate(-180.000000) translate(-103.473054, -82.778443) "></path>
                </g>
            </g>
        </g>
    </g>
</svg>