<?xml version="1.0" standalone="no"?>
<!DOCTYPE svg PUBLIC "-//W3C//DTD SVG 20010904//EN"
 "http://www.w3.org/TR/2001/REC-SVG-20010904/DTD/svg10.dtd">
<svg version="1.0" xmlns="http://www.w3.org/2000/svg"
 width="835.000000pt" height="835.000000pt" viewBox="0 0 835.000000 835.000000"
 preserveAspectRatio="xMidYMid meet">
<metadata>
Created by potrace 1.11, written by Peter Selinger 2001-2013
</metadata>
<g transform="translate(0.000000,835.000000) scale(0.100000,-0.100000)"
fill="#000000" stroke="none">
<path d="M3787 8344 c-1 -1 -74 -4 -162 -8 -88 -3 -171 -8 -185 -10 -14 -2
-56 -7 -95 -11 -38 -4 -77 -8 -85 -10 -8 -1 -42 -6 -75 -10 -33 -3 -82 -11
-110 -16 -27 -6 -61 -12 -75 -15 -14 -2 -50 -10 -80 -16 -30 -6 -60 -12 -65
-14 -104 -20 -438 -126 -487 -154 -10 -6 -22 -10 -27 -10 -16 0 -254 -116
-343 -166 -87 -50 -274 -172 -319 -208 -15 -12 -37 -29 -50 -38 -79 -57 -235
-194 -351 -310 -196 -197 -358 -428 -480 -688 -64 -134 -72 -155 -108 -250
-17 -47 -35 -94 -40 -105 -43 -101 -154 -506 -184 -675 -3 -14 -11 -61 -20
-105 -8 -44 -18 -100 -21 -125 -3 -25 -8 -53 -11 -63 -3 -10 -7 -36 -9 -57 -2
-21 -6 -56 -9 -77 -6 -39 -13 -90 -20 -153 -2 -19 -7 -73 -11 -120 -3 -47 -8
-96 -10 -110 -26 -157 -27 -970 0 -1325 5 -79 18 -220 20 -245 2 -14 6 -56 10
-95 3 -38 9 -86 11 -105 3 -19 7 -53 10 -75 4 -35 18 -129 29 -205 3 -14 7
-43 10 -65 47 -322 176 -816 270 -1030 12 -27 30 -70 41 -95 30 -71 140 -266
186 -327 173 -235 393 -431 693 -619 17 -10 39 -24 50 -30 11 -6 38 -21 60
-34 144 -82 368 -182 570 -255 114 -41 395 -127 457 -139 13 -3 73 -16 133
-30 115 -26 119 -27 255 -51 124 -22 130 -23 185 -30 28 -3 84 -10 125 -15 41
-5 102 -12 135 -15 33 -3 87 -7 120 -10 170 -15 568 -20 725 -10 141 9 226 15
250 19 14 3 57 7 97 10 40 4 78 8 85 11 7 2 36 6 63 9 81 8 132 16 280 41 190
33 231 41 333 66 48 11 94 22 102 24 76 15 311 88 440 137 417 158 751 397
983 703 228 302 378 644 557 1275 34 118 65 226 70 240 8 24 96 336 105 376 2
10 16 66 30 124 29 115 32 131 70 320 6 27 10 52 20 120 4 25 9 52 10 61 2 9
6 40 10 70 3 30 8 65 10 79 2 14 7 61 11 105 3 44 8 91 9 105 15 123 23 608
12 741 -26 317 -128 630 -311 956 -80 142 -296 444 -435 605 -11 13 -30 34
-41 48 -12 14 -43 49 -68 79 -26 30 -54 61 -63 70 -9 9 -62 68 -119 131 -57
63 -138 153 -180 200 -43 47 -90 101 -106 120 -16 19 -34 40 -39 46 -14 15
-103 117 -155 179 -205 242 -395 444 -553 590 -310 286 -637 465 -1037 565
-63 16 -128 31 -145 34 -16 3 -40 8 -52 10 -11 3 -43 7 -70 11 -26 4 -59 9
-73 11 -14 2 -50 6 -80 10 -30 3 -69 7 -87 9 -97 12 -586 27 -596 19z"/>
</g>
</svg>
